<svg width="520" height="140" viewBox="0 0 520 140" xmlns="http://www.w3.org/2000/svg">
  <!-- Colors -->
  <!-- Dark Blue: #1F3C5B | Teal: #1FB9B4 | Gray: #6B7280 -->

  <!-- Graduation Cap -->
  <polygon points="40,35 100,15 160,35 100,55" fill="#1F3C5B"/>
  <rect x="85" y="35" width="30" height="20" rx="5" fill="#1F3C5B"/>
  <line x1="160" y1="35" x2="160" y2="55" stroke="#1F3C5B" stroke-width="3"/>
  <circle cx="160" cy="60" r="5" fill="#1F3C5B"/>

  <!-- Network Lines -->
  <line x1="100" y1="80" x2="70" y2="105" stroke="#1FB9B4" stroke-width="3"/>
  <line x1="100" y1="80" x2="130" y2="105" stroke="#1FB9B4" stroke-width="3"/>
  <line x1="100" y1="80" x2="100" y2="115" stroke="#1FB9B4" stroke-width="3"/>

  <!-- Nodes -->
  <circle cx="100" cy="80" r="14" fill="#1FB9B4"/>
  <circle cx="70" cy="105" r="10" fill="#1FB9B4"/>
  <circle cx="130" cy="105" r="10" fill="#1FB9B4"/>

  <!-- Briefcase Node -->
  <circle cx="100" cy="120" r="16" fill="#1FB9B4"/>
  <rect x="92" y="114" width="16" height="10" rx="2" fill="#FFFFFF"/>
  <rect x="96" y="110" width="8" height="4" rx="1" fill="#FFFFFF"/>

  <!-- Text: CareerSync -->
  <text x="190" y="70" font-family="Segoe UI, Arial, sans-serif"
        font-size="42" font-weight="700" fill="#1F3C5B">
    Career
  </text>
  <text x="330" y="70" font-family="Segoe UI, Arial, sans-serif"
        font-size="42" font-weight="700" fill="#1FB9B4">
    Sync
  </text>

  <!-- Tagline -->
  <text x="190" y="100" font-family="Segoe UI, Arial, sans-serif"
        font-size="16" fill="#6B7280">
    Connecting Talent with Opportunity
  </text>
</svg>